HIERARCHY
ROOT joint_Root
{
	OFFSET 0.0 0.0 0.0
	CHANNELS 6 Xposition Yposition Zposition Zrotation Xrotation Yrotation 
	JOINT Hips
	{
		OFFSET 4.5925 91.4895 -427.239
		CHANNELS 6 Xposition Yposition Zposition Zrotation Xrotation Yrotation 
		JOINT Spine
		{
			OFFSET 15.7357 0.0 0.0
			CHANNELS 6 Xposition Yposition Zposition Zrotation Xrotation Yrotation 
			JOINT Chest
			{
				OFFSET 8.98455 -0.406207 0.0
				CHANNELS 6 Xposition Yposition Zposition Zrotation Xrotation Yrotation 
				JOINT Neck
				{
					OFFSET 16.3773 0.0 0.0
					CHANNELS 6 Xposition Yposition Zposition Zrotation Xrotation Yrotation 
					JOINT Head
					{
						OFFSET 6.45672 0.0 0.0
						CHANNELS 6 Xposition Yposition Zposition Zrotation Xrotation Yrotation 
						End Site
						{
							OFFSET 0.0 0.0 0.0
						}
					}
				}
				JOINT Shoulder_L
				{
					OFFSET 12.9942 -0.242716 4.98039
					CHANNELS 6 Xposition Yposition Zposition Zrotation Xrotation Yrotation 
					JOINT UpperArm_L
					{
						OFFSET 5.34809 0.0 0.0
						CHANNELS 6 Xposition Yposition Zposition Zrotation Xrotation Yrotation 
						JOINT LowerArm_L
						{
							OFFSET 24.3286 1.87007e-05 0.0
							CHANNELS 6 Xposition Yposition Zposition Zrotation Xrotation Yrotation 
							JOINT Hand_L
							{
								OFFSET 22.2916 0.0 0.0
								CHANNELS 6 Xposition Yposition Zposition Zrotation Xrotation Yrotation 
								End Site
								{
									OFFSET 0.0 0.0 0.0
								}
							}
						}
					}
				}
				JOINT Shoulder_R
				{
					OFFSET 12.9945 -0.242716 -4.98039
					CHANNELS 6 Xposition Yposition Zposition Zrotation Xrotation Yrotation 
					JOINT UpperArm_R
					{
						OFFSET -5.34813 0.0 0.0
						CHANNELS 6 Xposition Yposition Zposition Zrotation Xrotation Yrotation 
						JOINT LowerArm_R
						{
							OFFSET -24.3289 0.000322201 0.0
							CHANNELS 6 Xposition Yposition Zposition Zrotation Xrotation Yrotation 
							JOINT Hand_R
							{
								OFFSET -22.2915 -0.000108084 0.0
								CHANNELS 6 Xposition Yposition Zposition Zrotation Xrotation Yrotation 
								End Site
								{
									OFFSET 0.0 0.0 0.0
								}
							}
						}
					}
				}
			}
		}
		JOINT UpperLeg_L
		{
			OFFSET -2.19248 -6.46944 0.0
			CHANNELS 6 Xposition Yposition Zposition Zrotation Xrotation Yrotation 
			JOINT LowerLeg_L
			{
				OFFSET 39.0811 0.0 -1.23785e-05
				CHANNELS 6 Xposition Yposition Zposition Zrotation Xrotation Yrotation 
				JOINT Foot_L
				{
					OFFSET 40.9854 0.0 -1.26872e-05
					CHANNELS 6 Xposition Yposition Zposition Zrotation Xrotation Yrotation 
					JOINT Toes_L
					{
						OFFSET 11.7543 0.0 0.0
						CHANNELS 6 Xposition Yposition Zposition Zrotation Xrotation Yrotation 
						End Site
						{
							OFFSET 0.0 0.0 0.0
						}
					}
				}
			}
		}
		JOINT UpperLeg_R
		{
			OFFSET -2.19251 6.46944 0.0
			CHANNELS 6 Xposition Yposition Zposition Zrotation Xrotation Yrotation 
			JOINT LowerLeg_R
			{
				OFFSET -39.0811 -0.00228153 -0.0401928
				CHANNELS 6 Xposition Yposition Zposition Zrotation Xrotation Yrotation 
				JOINT Foot_R
				{
					OFFSET -40.9854 0.0 0.0
					CHANNELS 6 Xposition Yposition Zposition Zrotation Xrotation Yrotation 
					JOINT Toes_R
					{
						OFFSET -11.7543 0.0 0.0
						CHANNELS 6 Xposition Yposition Zposition Zrotation Xrotation Yrotation 
						End Site
						{
							OFFSET 0.0 0.0 0.0
						}
					}
				}
			}
		}
	}
}
MOTION
Frames:	4
Frame Time:	0.0333333
0.000000 0.000000 0.000000 0.000000 0.000000 -0.000000 3.520000 90.446600 -1.101190 88.937600 -6.794380 6.929780 15.735700 0.000005 -0.000001 88.251400 83.811600 -83.638500 8.984550 -0.406207 -0.000000 4.642210 -0.502056 9.235810 16.377300 -0.000001 -0.000001 4.866030 -0.296574 -1.854620 6.456720 -0.000001 -0.000000 -3.116390 -1.611770 2.426900 12.994200 -0.242716 4.980390 -84.409300 -10.812100 -62.443700 5.348090 -0.000007 -0.000001 -38.612800 -69.632500 -75.941500 24.328600 0.000019 0.000005 10.456800 7.747030 -53.856700 22.291600 -0.000001 0.000005 20.551200 5.307340 -0.135390 12.994500 -0.242716 -4.980390 87.684500 9.663120 -76.456100 -5.348130 -0.000001 -0.000004 -54.299600 15.323700 -4.954370 -24.328900 0.000322 -0.000009 0.709083 1.601840 -23.913000 -22.291500 -0.000108 -0.000004 16.289100 5.421510 -3.650080 -2.192480 -6.469440 -0.000000 -177.716000 -11.577600 -4.647200 39.081100 -0.000007 -0.000012 -0.222673 0.340179 33.208200 40.985400 -0.000006 -0.000013 1.250130 -0.120801 -71.808400 11.754300 -0.000000 0.000003 -0.000098 -0.001008 -16.616200 -2.192510 6.469440 -0.000001 174.377000 13.959400 175.577000 -39.081100 -0.002282 -0.040193 -0.135644 0.224026 31.807400 -40.985400 0.000008 0.000006 2.171620 12.964600 -70.397100 -11.754300 -0.000006 -0.000006 -0.002198 -0.031172 -17.840700
0.000000 0.000000 0.000000 0.000000 0.000000 -0.000000 3.448030 90.477400 -1.066440 88.963100 -6.579900 6.846390 15.735700 0.000005 -0.000001 88.063800 83.846300 -83.522300 8.984550 -0.406207 -0.000000 4.572210 -0.541041 9.094430 16.377300 -0.000001 -0.000001 4.879550 -0.335388 -1.834600 6.456720 -0.000001 -0.000000 -3.075660 -1.609590 2.408040 12.994200 -0.242716 4.980390 -84.613000 -10.471700 -62.577700 5.348090 -0.000007 -0.000001 -38.393900 -68.752100 -73.762100 24.328600 0.000019 0.000005 10.300900 6.646500 -57.511100 22.291600 -0.000001 0.000005 21.125100 5.302160 0.011517 12.994500 -0.242716 -4.980390 87.661800 9.672680 -76.340700 -5.348130 -0.000001 -0.000004 -54.421700 15.286300 -5.459320 -24.328900 0.000322 -0.000009 0.735900 1.684380 -23.635000 -22.291500 -0.000108 -0.000004 16.383800 5.420200 -3.605730 -2.192480 -6.469440 -0.000000 -177.718000 -11.473400 -4.645020 39.081100 -0.000007 -0.000012 -0.217829 0.334897 33.041800 40.985400 -0.000006 -0.000013 1.237060 0.003556 -71.730000 11.754300 -0.000000 0.000003 -0.000102 -0.001047 -16.617700 -2.192510 6.469440 -0.000001 174.410000 14.116800 175.617000 -39.081100 -0.002282 -0.040193 -0.132132 0.219424 31.683400 -40.985400 0.000008 0.000006 2.288390 12.839400 -70.414000 -11.754300 -0.000006 -0.000006 -0.002046 -0.029293 -17.764200
0.000000 0.000000 0.000000 0.000000 0.000000 -0.000000 3.351610 90.505800 -1.031730 88.988800 -6.357280 6.698130 15.735700 0.000005 -0.000001 87.932600 83.885400 -83.493900 8.984550 -0.406207 -0.000000 4.492760 -0.566601 8.889570 16.377300 -0.000001 -0.000001 4.786220 -0.458205 -1.791810 6.456720 -0.000001 -0.000000 -3.041480 -1.627460 2.402020 12.994200 -0.242716 4.980390 -84.941200 -9.899530 -62.755900 5.348090 -0.000007 -0.000001 -37.639500 -67.491100 -70.416200 24.328600 0.000019 0.000005 10.232800 5.352440 -62.675500 22.291600 -0.000001 0.000005 21.319800 5.295650 0.193794 12.994500 -0.242716 -4.980390 87.631100 9.719530 -76.231900 -5.348130 -0.000001 -0.000004 -54.657400 15.299300 -5.902170 -24.328900 0.000322 -0.000009 0.684203 1.584030 -23.397400 -22.291500 -0.000108 -0.000004 16.492600 5.419330 -3.576740 -2.192480 -6.469440 -0.000000 -177.716000 -11.306800 -4.713530 39.081100 -0.000007 -0.000012 -0.218055 0.337208 32.889000 40.985400 -0.000006 -0.000013 1.184120 0.081842 -71.656800 11.754300 -0.000000 0.000003 -0.000099 -0.001024 -16.616800 -2.192510 6.469440 -0.000001 174.445000 14.284000 175.611000 -39.081100 -0.002282 -0.040193 -0.135439 0.226174 31.525500 -40.985400 0.000008 0.000006 2.168330 12.806800 -70.361800 -11.754300 -0.000006 -0.000006 -0.002217 -0.031395 -17.849700
0.000000 0.000000 0.000000 0.000000 0.000000 -0.000000 3.201620 90.550900 -1.009260 88.951300 -6.190790 6.484750 15.735700 0.000005 -0.000001 87.965900 83.923700 -83.635900 8.984550 -0.406207 -0.000000 4.414970 -0.556688 8.671850 16.377300 -0.000001 -0.000001 4.548570 -0.579200 -1.721930 6.456720 -0.000001 -0.000000 -3.038190 -1.680950 2.394410 12.994200 -0.242716 4.980390 -85.409300 -9.041300 -62.935100 5.348090 -0.000007 -0.000001 -34.935400 -65.677100 -64.688100 24.328600 0.000019 0.000005 9.628360 3.767750 -68.831300 22.291600 -0.000001 0.000005 21.860500 5.294070 0.237529 12.994500 -0.242716 -4.980390 87.599400 9.746120 -76.090800 -5.348130 -0.000001 -0.000004 -55.012700 15.617900 -6.405700 -24.328900 0.000322 -0.000009 0.579984 1.367060 -23.029800 -22.291500 -0.000108 -0.000004 16.680800 5.420420 -3.613400 -2.192480 -6.469440 -0.000000 -177.607000 -11.247300 -4.831490 39.081100 -0.000007 -0.000012 -0.215055 0.334999 32.699100 40.985400 -0.000006 -0.000013 1.124340 0.265790 -71.546900 11.754300 -0.000000 0.000003 -0.000107 -0.001091 -16.619400 -2.192510 6.469440 -0.000001 174.637000 14.443600 175.550000 -39.081100 -0.002282 -0.040193 -0.129809 0.218774 31.317500 -40.985400 0.000008 0.000006 2.316950 12.706800 -70.332400 -11.754300 -0.000006 -0.000006 -0.002046 -0.029294 -17.764300
